<svg viewBox="0 0 36 36" xmlns="http://www.w3.org/2000/svg">
    <g transform="translate(10 1.333333)">
        <path d="m15.75 0 8.25 8.25-4.125.75-4.125-.75-.75-4.125z" fill="#436b24" />
        <path d="m15.75 8.25v-8.25h-13.5c-1.243125 0-2.25 1.006875-2.25 2.25v28.5c0 1.243125 1.006875 2.25 2.25 2.25h19.5c1.243125 0 2.25-1.006875 2.25-2.25v-22.5z" fill="#8dc149" />
        <path d="m4.5 12.75v10.875h15v-10.875zm6.5625 9h-4.6875v-2.625h4.6875zm0-4.5h-4.6875v-2.625h4.6875zm6.5625 4.5h-4.6875v-2.625h4.6875zm0-4.5h-4.6875v-2.625h4.6875z"/>
    </g>
</svg>